<svg width="124" height="35" viewBox="0 0 124 35" fill="none" xmlns="http://www.w3.org/2000/svg">
<g clip-path="url(#clip0)">
<path fill-rule="evenodd" clip-rule="evenodd" d="M102.617 34.8564V30.1357H103.607V33.9728H105.343V34.8564H102.617Z" fill="white"/>
<path fill-rule="evenodd" clip-rule="evenodd" d="M109.271 32.8693H110.234L109.742 31.2249L109.271 32.8693ZM110.55 33.7396H108.948L108.538 34.8564H107.488L109.21 30.1357H110.281L111.997 34.8564H110.96L110.55 33.7396Z" fill="white"/>
<path fill-rule="evenodd" clip-rule="evenodd" d="M115.514 32.8285V33.9728H116.463C116.779 33.9728 116.961 33.6984 116.961 33.3901C116.961 33.0957 116.766 32.8285 116.443 32.8285H115.514ZM115.514 31.9995H116.288C116.537 31.9995 116.719 31.7935 116.719 31.513C116.719 31.2113 116.571 31.0195 116.282 31.0195H115.514V31.9995ZM117.122 32.335C117.405 32.4104 117.621 32.5543 117.768 32.7668C117.923 32.9791 117.997 33.1916 117.997 33.4109C117.997 33.8149 117.863 34.1574 117.594 34.4383C117.324 34.7193 116.968 34.8564 116.517 34.8564H114.525V30.1357H116.382C117.217 30.1357 117.755 30.6492 117.755 31.4514C117.755 31.8073 117.56 32.1637 117.122 32.335Z" fill="white"/>
<path fill-rule="evenodd" clip-rule="evenodd" d="M121.569 33.4725C121.589 33.7944 121.838 34.0412 122.262 34.0412C122.666 34.0412 122.935 33.8422 122.942 33.5409C122.948 33.3012 122.821 33.1364 122.383 33.0065L121.825 32.8489C121.024 32.5955 120.627 32.1432 120.627 31.4921C120.627 31.0743 120.781 30.7385 121.084 30.478C121.387 30.2108 121.771 30.0806 122.222 30.0806C122.679 30.0806 123.056 30.2108 123.345 30.4713C123.642 30.7318 123.79 31.081 123.79 31.5263H122.807C122.807 31.2046 122.592 30.992 122.208 30.992C121.858 30.992 121.609 31.1908 121.609 31.4646C121.609 31.691 121.777 31.8485 122.108 31.9444L122.659 32.1224C123.527 32.3762 123.951 32.8556 123.931 33.5476C123.924 33.8422 123.843 34.1027 123.675 34.322C123.345 34.7536 122.834 34.9318 122.262 34.9318C121.757 34.9318 121.354 34.7947 121.044 34.5276C120.734 34.2534 120.58 33.9039 120.58 33.4725H121.569Z" fill="white"/>
<path fill-rule="evenodd" clip-rule="evenodd" d="M5.38462 18.855C5.49449 20.6081 6.84954 21.9507 9.15751 21.9507C11.3551 21.9507 12.8205 20.8692 12.857 19.228C12.8935 17.9225 12.1974 17.0277 9.8166 16.319L6.77624 15.4613C2.41756 14.081 0.256197 11.6198 0.256197 8.07661C0.256197 5.80161 1.09893 3.97394 2.74718 2.55652C4.39544 1.10203 6.4832 0.393555 8.93777 0.393555C11.4284 0.393555 13.4796 1.10202 15.0549 2.51929C16.6663 3.93671 17.4723 5.83869 17.4723 8.2628H12.1244C12.1244 6.50976 10.9521 5.35381 8.86431 5.35381C6.95957 5.35381 5.60421 6.43561 5.60421 7.92734C5.60421 9.1581 6.52008 10.0158 8.31463 10.538L11.3186 11.5079C16.0438 12.8878 18.3516 15.4985 18.2417 19.2651C18.2048 20.8692 17.7653 22.2863 16.8496 23.4798C15.0549 25.8298 12.2709 26.7992 9.15751 26.7992C6.41021 26.7992 4.21227 26.0533 2.52744 24.5989C0.842293 23.1068 -0.00012207 21.2048 -0.00012207 18.855H5.38462Z" fill="white"/>
<path fill-rule="evenodd" clip-rule="evenodd" d="M31.8463 0L18.8897 26.3849H44.803L31.8463 0ZM31.8463 2.25135L43.2031 25.3779H20.4896L31.8463 2.25135ZM27.2136 20.7187H36.479L31.8463 11.2849L27.2136 20.7187ZM31.8463 13.5362L34.879 19.7119H28.8136L31.8463 13.5362Z" fill="white"/>
<path fill-rule="evenodd" clip-rule="evenodd" d="M42.8531 5.61523V0.691895H61.9008V5.61523H55.0876V26.3892H49.6664V5.61523H42.8531Z" fill="white"/>
<path fill-rule="evenodd" clip-rule="evenodd" d="M65.8916 26.3888H71.2398V0.691406H65.8916V26.3888Z" fill="white"/>
<path fill-rule="evenodd" clip-rule="evenodd" d="M81.2021 18.855C81.312 20.6081 82.6672 21.9507 84.975 21.9507C87.1727 21.9507 88.638 20.8692 88.6745 19.228C88.711 17.9225 88.0151 17.0277 85.6341 16.319L82.5939 15.4613C78.2352 14.081 76.0737 11.6198 76.0737 8.07661C76.0737 5.80161 76.9164 3.97394 78.5647 2.55652C80.2129 1.10203 82.3007 0.393555 84.7554 0.393555C87.2459 0.393555 89.2971 1.10202 90.8724 2.51929C92.4839 3.93671 93.2899 5.83869 93.2899 8.2628H87.9419C87.9419 6.50976 86.7697 5.35381 84.682 5.35381C82.7771 5.35381 81.4219 6.43561 81.4219 7.92734C81.4219 9.1581 82.3376 10.0158 84.1323 10.538L87.1362 11.5079C91.8613 12.8878 94.1691 15.4985 94.0592 19.2651C94.0225 20.8692 93.583 22.2863 92.6673 23.4798C90.8724 25.8298 88.0884 26.7992 84.975 26.7992C82.2277 26.7992 80.0298 26.0533 78.3451 24.5989C76.66 23.1068 75.8174 21.2048 75.8174 18.855H81.2021Z" fill="white"/>
<path fill-rule="evenodd" clip-rule="evenodd" d="M98.3322 26.3892V0.691895H114.12V5.5032H103.717V11.3587H111.958V16.1326H103.717V26.3892H98.3322Z" fill="white"/>
<path fill-rule="evenodd" clip-rule="evenodd" d="M118.54 25.3792H122.883V1.69142H118.54V25.3792ZM117.551 26.3862H123.872V0.68457H117.551V26.3862Z" fill="white"/>
</g>
<defs>
<clipPath id="clip0">
<rect width="124" height="35" fill="white"/>
</clipPath>
</defs>
</svg>
